# xmcd
#
# Track frame offsets:
#   150
#   11303
#   21628
#   36776
#   54518
#   69154
#   84112
#   99909
#   108647
#   118768
#   133215
#   146178
#   159470
#   172151
#   184270
#   197274
#   210471
#   224664
#   238517
#   249942
#   264080
#   276102
#   291877
#   303393
#   318434
#
# Disc length: 4406 seconds
#
# Revision: 0
# Processed by: cddbd v1.4PL0 Copyright (c) Steve Scherf et al.
# Submitted via: uFREEDB 1.6.0
#
DISCID=67113419
DTITLE=Billo`s Caracas Boys - Billisimas. Volumen 2
DYEAR=1999
DGENRE=Latin
TTITLE0=Al fin y al cabo
TTITLE1=Canto a Caracas
TTITLE2=Casate y veras
TTITLE3=Cuando estemos viejos
TTITLE4=Aguinaldos con Billos
TTITLE5=Cuando valla a Margarita
TTITLE6=En Caracas
TTITLE7=Epa Isidoro
TTITLE8=La cancion de Caracas
TTITLE9=Las playas de Margarita
TTITLE10=Nosotros
TTITLE11=No hay quien le gane
TTITLE12=Pa´ Maracaibo me voy
TTITLE13=Parece mentira
TTITLE14=Pesar
TTITLE15=Porque ahora
TTITLE16=Puerto Cabello
TTITLE17=Que tonteria
TTITLE18=Rumba rumbero
TTITLE19=Rumores
TTITLE20=Somos
TTITLE21=Soñar
TTITLE22=Tanto trabajar
TTITLE23=Temperamento sentimental
TTITLE24=Toy contento
EXTD=
EXTT0=
EXTT1=
EXTT2=
EXTT3=
EXTT4=
EXTT5=
EXTT6=
EXTT7=
EXTT8=
EXTT9=
EXTT10=
EXTT11=
EXTT12=
EXTT13=
EXTT14=
EXTT15=
EXTT16=
EXTT17=
EXTT18=
EXTT19=
EXTT20=
EXTT21=
EXTT22=
EXTT23=
EXTT24=
PLAYORDER=
